HIERARCHY
ROOT root
{
	OFFSET	0	13.1	24.9
	CHANNELS 6  Xposition Yposition Zposition Xrotation Yrotation Zrotation
	JOINT spine_1
	{
		OFFSET	0	9.99999	0
		CHANNELS 3  Xrotation Yrotation Zrotation
		JOINT spine_2
		{
			OFFSET	0	112	-10
			CHANNELS 3  Xrotation Yrotation Zrotation
			JOINT spine_3
			{
				OFFSET	0	206.5	19.3
				CHANNELS 3  Xrotation Yrotation Zrotation
				JOINT spine_4
				{
					OFFSET	0	110.4	14.6
					CHANNELS 3  Xrotation Yrotation Zrotation
					JOINT neck_1
					{
						OFFSET	0	71.8	-50.3
						CHANNELS 3  Xrotation Yrotation Zrotation
						JOINT neck_2
						{
							OFFSET	0	86.2	-25.8
							CHANNELS 3  Xrotation Yrotation Zrotation
							JOINT head_ee
							{
								OFFSET	0	179.8	-8.7
								CHANNELS 3  Xrotation Yrotation Zrotation
								End Site
								{
									OFFSET	1	0	0
								}
							}
						}
					}
					JOINT left_clavicle
					{
						OFFSET	-43.2	22.4	-70.8
						CHANNELS 3  Xrotation Yrotation Zrotation
						JOINT left_shoulder
						{
							OFFSET	-93.9	-5.79999	48.7
							CHANNELS 3  Xrotation Yrotation Zrotation
							JOINT left_elbow
							{
								OFFSET	-291.4	-30.8	15.2
								CHANNELS 3  Xrotation Yrotation Zrotation
								JOINT left_lowarm_twist
								{
									OFFSET	-110.7	-3.89999	13.6
									CHANNELS 3  Xrotation Yrotation Zrotation
									JOINT left_hand
									{
										OFFSET	-110.7	-3.89999	13.6
										CHANNELS 3  Xrotation Yrotation Zrotation
										JOINT left_ee
										{
											OFFSET	-80.8	-5.10001	12.1
											CHANNELS 3  Xrotation Yrotation Zrotation
											End Site
											{
												OFFSET	1	0	0
											}
										}
									}
								}
							}
						}
					}
					JOINT right_clavicle
					{
						OFFSET	43.2	22.4	-70.8
						CHANNELS 3  Xrotation Yrotation Zrotation
						JOINT right_shoulder
						{
							OFFSET	93.9	-5.79999	48.7
							CHANNELS 3  Xrotation Yrotation Zrotation
							JOINT right_elbow
							{
								OFFSET	291.4	-30.8	15.2
								CHANNELS 3  Xrotation Yrotation Zrotation
								JOINT right_lowarm_twist
								{
									OFFSET	110.7	-3.89999	13.6
									CHANNELS 3  Xrotation Yrotation Zrotation
									JOINT right_hand
									{
										OFFSET	110.7	-3.89999	13.6
										CHANNELS 3  Xrotation Yrotation Zrotation
										JOINT right_ee
										{
											OFFSET	80.8	-5.10001	12.1
											CHANNELS 3  Xrotation Yrotation Zrotation
											End Site
											{
												OFFSET	1	0	0
											}
										}
									}
								}
							}
						}
					}
				}
			}
		}
	}
	JOINT left_hip
	{
		OFFSET	-82.8	-127.5	0.300001
		CHANNELS 3  Xrotation Yrotation Zrotation
		JOINT left_knee
		{
			OFFSET	-28.2	-396.7	2.2
			CHANNELS 3  Xrotation Yrotation Zrotation
			JOINT left_ankle
			{
				OFFSET	-11.7	-411.3	35.4
				CHANNELS 3  Xrotation Yrotation Zrotation
				JOINT left_toes
				{
					OFFSET	0	-60	-88.6
					CHANNELS 3  Xrotation Yrotation Zrotation
					JOINT left_foot_ee
					{
						OFFSET	-22.5	-16.5	-42.2
						CHANNELS 3  Xrotation Yrotation Zrotation
						End Site
						{
							OFFSET	1	0	0
						}
					}
				}
			}
		}
	}
	JOINT right_hip
	{
		OFFSET	82.8	-127.5	0.300001
		CHANNELS 3  Xrotation Yrotation Zrotation
		JOINT right_knee
		{
			OFFSET	28.2	-396.7	2.2
			CHANNELS 3  Xrotation Yrotation Zrotation
			JOINT right_ankle
			{
				OFFSET	11.7	-411.3	35.4
				CHANNELS 3  Xrotation Yrotation Zrotation
				JOINT right_toes
				{
					OFFSET	0	-60	-88.6
					CHANNELS 3  Xrotation Yrotation Zrotation
					JOINT right_foot_ee
					{
						OFFSET	22.5	-16.5	-42.2
						CHANNELS 3  Xrotation Yrotation Zrotation
						End Site
						{
							OFFSET	1	0	0
						}
					}
				}
			}
		}
	}
}
MOTION
Frames: 5
Frame Time: 0.02
1209.46 633.325 -560.166 51.2907 -84.0412 63.0888 -5.27373 -0.86405 -4.6419 -5.26193 -0.567256 -4.68733 -5.19173 0.855504 -4.64348 -5.22179 0.112269 -4.72012 -1.3325 5.41031 7.01148 -1.20407 4.09495 8.08594 -0.0 0.0 -0.0 11.1698 13.7247 20.5114 24.7533 -2.35326 82.8458 1.17578 -30.2176 0.317455 48.8317 -0.88645 -5.98847 -3.02725 17.0116 -11.6288 -0.0 0.0 -0.0 8.88605 11.1737 -17.3839 -5.79763 -1.48295 -57.296 1.10058 28.5981 -0.280521 24.434 -0.204599 3.09096 7.34662 -34.5545 -67.3358 0.0 0.0 0.0 16.9815 -11.1968 -9.56189 -54.8042 -1.66581 7.92868 39.2997 15.665 -4.87947 29.8867 -0.0 -0.0 -0.0 0.0 -0.0 21.3933 25.0653 -25.8506 -79.6891 4.65552 -10.2935 4.60777 -28.1048 0.708503 12.3856 -0.0 -0.0 0.0 0.0 0.0 
1213.0 636.591 -557.497 59.0904 -85.7375 71.072 -4.79604 -0.75059 -4.70712 -4.78383 -0.449888 -4.74523 -4.72434 0.947063 -4.67164 -4.75472 0.198256 -4.76234 -2.48552 6.6538 7.70292 -2.32743 5.98145 8.96198 -0.0 0.0 -0.0 10.6181 11.4689 19.8308 28.3667 -3.11923 82.4199 1.14652 -29.5936 0.302865 48.5382 -0.866162 -5.95684 -2.73033 17.1946 -9.68467 -0.0 0.0 -0.0 8.64036 12.0253 -16.8238 -6.2428 -3.47851 -58.9654 0.97667 25.8178 -0.223852 23.0695 -0.2281 2.91824 7.476 -35.0977 -69.4161 0.0 0.0 0.0 17.0926 -10.1561 -9.93001 -52.5209 -1.44873 7.65181 39.3828 17.1994 -4.91328 30.6384 -0.0 -0.0 -0.0 0.0 -0.0 24.7292 24.9741 -25.0661 -77.6733 4.37789 -10.1523 9.20034 -29.2894 1.40781 13.8444 -0.0 -0.0 0.0 0.0 0.0 
1222.41 645.509 -558.211 65.8381 -86.3268 77.6913 -4.72882 -0.681854 -4.71458 -4.71653 -0.380818 -4.74831 -4.66326 1.0093 -4.6556 -4.6934 0.262241 -4.75631 -2.73105 6.25806 8.63476 -2.5346 4.56923 9.88031 -0.0 0.0 -0.0 10.5653 10.8655 19.8116 29.7258 -4.11081 82.4772 1.21341 -31.0083 0.336613 47.8087 -0.816442 -5.87779 -2.38114 17.3441 -7.45573 -0.0 0.0 -0.0 8.78996 12.1374 -17.1445 -7.15198 -4.58669 -58.3386 0.877905 23.5034 -0.182635 23.3036 -0.224361 2.94792 7.49304 -35.1938 -69.691 0.0 0.0 0.0 16.2297 -10.1189 -9.50375 -50.7915 -1.2918 7.43655 36.5585 17.8924 -4.65691 29.6998 -0.0 -0.0 -0.0 0.0 -0.0 27.1991 26.3704 -24.5768 -73.5592 3.82753 -9.83456 10.4963 -28.2323 1.58863 12.7503 -0.0 -0.0 0.0 0.0 0.0 
1235.57 658.496 -553.315 58.644 -86.7907 70.2626 -4.72156 -0.62246 -4.61638 -4.70977 -0.327771 -4.64654 -4.66263 1.03065 -4.54286 -4.69129 0.301067 -4.64834 -2.78167 7.47873 8.68451 -2.58066 6.75837 10.0971 -0.0 0.0 -0.0 10.4542 9.79655 19.7355 30.7705 -6.82369 82.2508 1.33988 -33.5721 0.404195 46.9888 -0.76177 -5.7882 -1.48862 17.5646 -1.9084 -0.0 0.0 -0.0 8.95866 11.8096 -17.5221 -8.44757 -6.22008 -58.7128 0.722745 19.6987 -0.125483 23.3404 -0.223762 2.95258 7.4769 -34.891 -69.5856 0.0 0.0 0.0 13.2518 -6.43438 -10.6307 -42.9328 -0.663817 6.4039 35.1864 14.5708 -4.47139 29.3943 -0.0 -0.0 -0.0 0.0 -0.0 28.7618 22.8114 -21.5773 -70.556 3.44092 -9.57819 12.8147 -24.1103 1.87951 13.4015 -0.0 -0.0 0.0 0.0 0.0 
1247.44 664.596 -552.621 59.2555 -86.6355 70.8363 -4.79676 -0.64937 -4.54906 -4.78533 -0.358896 -4.58107 -4.73626 0.987536 -4.48793 -4.76425 0.26714 -4.58733 -2.80613 8.07688 8.15148 -2.62363 8.2734 9.62399 -0.0 0.0 -0.0 10.4118 8.31159 19.8243 31.7144 -10.1079 81.978 1.50742 -36.7475 0.500711 46.2882 -0.71608 -5.71104 -0.722409 18.779 3.2486 -0.0 0.0 -0.0 9.06776 11.9976 -17.7535 -9.57271 -7.41139 -59.1142 0.596231 16.4549 -0.0862107 23.4883 -0.221325 2.97131 7.47251 -34.586 -69.7153 0.0 0.0 0.0 11.1532 -3.52276 -11.1063 -39.1425 -0.413114 5.87787 35.1663 12.8891 -4.45071 29.9738 -0.0 -0.0 -0.0 0.0 -0.0 31.1149 18.3097 -21.1261 -67.6434 3.07934 -9.31064 14.7926 -21.1352 2.12474 14.3143 -0.0 -0.0 0.0 0.0 0.0 
